<svg xmlns="http://www.w3.org/2000/svg" width="1200" height="300" viewBox="0 0 1200 300" role="img" aria-label="Keshav Aggarwal, space physicist">
<defs>
<radialGradient id="corona" cx="50%" cy="50%" r="50%">
<stop offset="0%" stop-color="#ffd27a" stop-opacity=".9"/><stop offset="35%" stop-color="#f39c32" stop-opacity=".35"/><stop offset="100%" stop-color="#f39c32" stop-opacity="0"/>
</radialGradient>
<radialGradient id="sun" cx="45%" cy="40%" r="60%"><stop offset="0%" stop-color="#fff3c4"/><stop offset="60%" stop-color="#ffd27a"/><stop offset="100%" stop-color="#f39c32"/></radialGradient>
<radialGradient id="earth" cx="35%" cy="35%" r="70%"><stop offset="0%" stop-color="#7fc4ff"/><stop offset="100%" stop-color="#1f5f9a"/></radialGradient>
<linearGradient id="fade" x1="0" x2="1"><stop offset="0" stop-color="#f8f9fa"/><stop offset="1" stop-color="#f8f9fa" stop-opacity="0"/></linearGradient>
</defs>
<rect width="1200" height="300" rx="14" fill="#f8f9fa"/>
<rect x=".5" y=".5" width="1199" height="299" rx="14" fill="none" stroke="#e1e5ea"/>

<g>
<circle cx="860" cy="118" r="120" fill="url(#corona)"/>
<circle cx="860" cy="118" r="34" fill="url(#sun)"/>
<circle cx="860" cy="118" r="62" fill="none" stroke="#f39c32" stroke-opacity=".25" stroke-dasharray="2 5"/>
<circle cx="860" cy="118" r="92" fill="none" stroke="#f39c32" stroke-opacity=".15" stroke-dasharray="2 6"/>
</g>
<g>
<path d="M640 232 L1100 140" stroke="#1f4f7a" stroke-width="1.6" stroke-dasharray="7 6" fill="none"/>
<g transform="translate(0 33) rotate(-11.3 860 150)"><path d="M820 150 q 4 -6 8 0 t 8 0" fill="none" stroke="#1f4f7a" stroke-width="1.2" opacity=".55"/><path d="M842 150 q 4 -6 8 0 t 8 0" fill="none" stroke="#1f4f7a" stroke-width="1.2" opacity=".55"/><path d="M864 150 q 4 -6 8 0 t 8 0" fill="none" stroke="#1f4f7a" stroke-width="1.2" opacity=".55"/><path d="M886 150 q 4 -6 8 0 t 8 0" fill="none" stroke="#1f4f7a" stroke-width="1.2" opacity=".55"/></g>
<circle cx="640" cy="232" r="11" fill="url(#earth)"/>
<text x="640" y="262" text-anchor="middle" font-family="ui-monospace,SFMono-Regular,Menlo,Consolas,monospace" font-size="11" letter-spacing="1.5" fill="#536072">EARTH</text>
<g transform="translate(1100 140) rotate(-11.3)">
<rect x="-6" y="-6" width="12" height="12" fill="#16202c"/>
<rect x="-30" y="-3" width="20" height="6" fill="#1f4f7a"/><rect x="10" y="-3" width="20" height="6" fill="#1f4f7a"/>
</g>
<text x="1100" y="120" text-anchor="middle" font-family="ui-monospace,SFMono-Regular,Menlo,Consolas,monospace" font-size="11" letter-spacing="1.5" fill="#536072">SPACECRAFT</text>
<text x="1000" y="205" text-anchor="middle" font-family="ui-monospace,SFMono-Regular,Menlo,Consolas,monospace" font-size="10.5" letter-spacing="1.2" fill="#536072">S / X-BAND RADIO LINK</text>
</g>
<rect x="0" y="0" width="620" height="300" rx="14" fill="url(#fade)"/>
<text x="56" y="92" font-family="ui-monospace,SFMono-Regular,Menlo,Consolas,monospace" font-size="13" letter-spacing="2.2" fill="#1f4f7a">SOLAR WIND · RADIO OCCULTATION · PLANETARY PLASMA</text>
<text x="54" y="160" font-family="Georgia,'Times New Roman',serif" font-size="60" font-weight="700" fill="#16202c">Keshav Aggarwal</text>
<text x="56" y="200" font-family="-apple-system,BlinkMacSystemFont,'Segoe UI',Helvetica,Arial,sans-serif" font-size="19" fill="#536072">Space physicist · Space Physics Laboratory, VSSC (ISRO)</text>
<text x="56" y="228" font-family="-apple-system,BlinkMacSystemFont,'Segoe UI',Helvetica,Arial,sans-serif" font-size="19" fill="#536072">PhD, IIT Indore · Prime Minister's Research Fellow</text>
</svg>